<?xml version="1.0" encoding="UTF-8"?>
<!DOCTYPE svg PUBLIC "-//W3C//DTD SVG 1.1//EN" "http://www.w3.org/Graphics/SVG/1.1/DTD/svg11.dtd">
<!-- Creator: CorelDRAW -->
<svg xmlns="http://www.w3.org/2000/svg" xml:space="preserve" width="31.3411mm" height="17.0271mm" version="1.1" style="shape-rendering:geometricPrecision; text-rendering:geometricPrecision; image-rendering:optimizeQuality; fill-rule:evenodd; clip-rule:evenodd"
viewBox="0 0 852.73 463.27"
 xmlns:xlink="http://www.w3.org/1999/xlink"
 xmlns:xodm="http://www.corel.com/coreldraw/odm/2003">
 <defs>
  <style type="text/css">
   <![CDATA[
    .str0 {stroke:#373535;stroke-width:5.44;stroke-miterlimit:22.9256}
    .fil0 {fill:#00A85A}
    .fil5 {fill:black}
    .fil3 {fill:#020202}
    .fil9 {fill:#B6B6B6}
    .fil8 {fill:#F9F9F9}
    .fil7 {fill:#FCFCFC}
    .fil6 {fill:#FDFDFD}
    .fil4 {fill:#FEFEFE}
    .fil2 {fill:black;fill-rule:nonzero}
    .fil1 {fill:black;fill-rule:nonzero}
   ]]>
  </style>
 </defs>
 <g id="Camada_x0020_1">
  <metadata id="CorelCorpID_0Corel-Layer"/>
  <g id="_105553334663328">
   <path class="fil0 str0" d="M132.67 17.69l76.24 5.68 -1.62 20.68c21.25,-23.01 51.12,-37.89 84.14,-40.84 48.26,-4.32 90.21,20.01 114.04,56.09l1.15 -25.34 102.9 -27.15 48.37 7.57 38.22 77.85 -59.48 -2.1 -33.95 -33.99 -51.71 33.27 2.62 55.7 32.78 24.08 32.34 -18.41 8.74 -41.08 69.39 10.15 -16.99 63.72 -22.68 -24.77 -14.86 52.4 -31.37 15.55 -81.68 3.78 -16.44 -44.77c-19.45,38.09 -57.58,64.26 -100.27,68.12l63.91 192.12 -64.2 11.56 -11.07 -49.3 -51.71 -3.78 -16.96 55.94 -56.43 -3.3 61.38 -214.54 9.49 -0.12c-27,-12.73 -48.45,-34.67 -60.74,-61.23l-51.16 47.66 -71.05 -1.41 -39.63 -29.04 -9.22 -66.77 64.68 4.03 -15.83 28.31 29.04 29.96 30.45 -20.78 9.18 -155.5zm610.2 -5.19l67.99 204.35 -64.2 11.56 -11.07 -49.3 -51.71 -3.78 -16.96 55.94 -56.42 -3.3 61.38 -214.54 71 -0.93zm-726.03 228.24l148.41 -0.72 -7.77 86.83 -88.04 -20.3 -1.89 38.46 19.86 -3.3 -1.45 29.96 -19.33 3.34 10.15 83.77 -73.86 -1.45 13.94 -216.6zm529.69 4.95l13.45 68.67 -49.78 14.62 -13.21 -23.12 -31.86 12.04 -25.01 44.34 7.78 39.63 38.02 0.97 19.33 -26.42 54.05 8.01 -22.67 54.49 -42.93 17.24 -77.89 -4.95 -26.9 -95.57 14.86 -90.86 94.89 -33.51 47.89 14.42zm40.11 10.35l62.31 -2.34 23.12 190.9 -89.89 12.04 4.47 -200.61zm111.12 -13.21l62.99 2.14 -3.5 145.83 91.3 -13.45 1.41 82.12 -162.83 -0.93 10.64 -215.71z"/>
   <g>
    <path class="fil1" d="M149.23 15.79l72.68 5.41 -11.02 140.6 -59.39 55.32 -67.73 -1.34 -37.78 -27.68 -8.79 -63.66 61.66 3.84 -15.09 26.99 27.68 28.57 29.03 -19.81 8.75 -148.24zm385.09 69.07l-32.37 -32.4 -49.3 31.71 2.49 53.1 31.25 22.96 30.83 -17.55 8.33 -39.16 66.15 9.68 -16.2 60.74 -21.61 -23.61 -14.17 49.95 -29.91 14.82 -77.86 3.61 -26.76 -72.87 5.18 -114.53 98.1 -25.88 46.11 7.22 36.43 74.21 -56.71 -2zm162.44 -14.63l-13.29 62.08 33.06 -2.27 -19.77 -59.82zm-38.24 149.16l-53.79 -3.15 58.51 -204.52 67.69 -0.88 64.81 194.81 -61.2 11.02 -10.56 -46.99 -49.3 -3.61 -16.16 53.33z"/>
    <path class="fil2" d="M38.81 228.41l141.48 -0.69 -7.41 82.77 -83.93 -19.35 -1.8 36.67 18.93 -3.15 -1.38 28.57 -18.43 3.19 9.68 79.86 -70.41 -1.38 13.29 -206.48zm243.84 60.28l-13.29 62.08 33.06 -2.27 -19.77 -59.82zm-38.24 149.16l-53.79 -3.15 58.51 -204.52 67.69 -0.88 64.81 194.81 -61.2 11.02 -10.56 -46.99 -49.3 -3.61 -16.16 53.33zm264.72 -125.32l-12.59 -22.04 -30.37 11.48 -23.84 42.27 7.41 37.78 36.24 0.92 18.43 -25.19 51.52 7.64 -21.61 51.95 -40.93 16.43 -74.25 -4.72 -25.65 -91.11 14.17 -86.62 90.46 -31.94 45.65 13.75 12.82 65.46 -47.45 13.94zm72.87 -69.53l59.39 -2.23 22.04 181.99 -85.69 11.48 4.26 -191.24zm105.93 -12.59l60.05 2.04 -3.34 139.02 87.04 -12.82 1.34 78.28 -155.23 -0.88 10.14 -205.64z"/>
    <g>
     <path class="fil3" d="M291.06 236.65l2.32 -5.46c5,-6.01 7.98,-10.4 11.16,-18.96 14.87,-3.67 26.45,-5.33 39.27,-11.2 9.95,-4.55 7.63,-3.1 17.33,0.87 5.86,2.4 15.01,2.81 20.13,5.5 -3.33,9.2 -5.77,10.74 -14.13,15.59 -6.36,3.68 -13.28,6.76 -20.71,9.25 -15.92,5.34 -38.1,8.7 -55.35,4.42zm92.35 -25.56c3.34,-10.02 1.68,-5.13 8.04,-11.47 8.51,-8.46 19.17,-21.51 24.9,-32.75 -2.16,9.5 -7.94,17.85 -13.4,25.08 -4.88,6.46 -12.07,15.71 -19.55,19.14zm-157.64 -19.7c2.24,6.85 5.13,11.45 7.28,17.74 -7.91,-4.44 -18.94,-19.08 -24.25,-28.05 -3.48,-5.89 -15.76,-29.33 -12.67,-36.09 5.8,2.25 7.57,10.77 10.15,15.45 8.23,14.93 15.2,17.81 19.5,30.96zm192.58 -30.04c-2.72,-3.07 -2.92,-6.09 -3.86,-10.22 -4.64,-20.34 -9.82,-12.83 -7.1,-31.04 4.32,-28.85 -3.83,-37.67 9.24,-44.76 8.86,23.92 15.41,65.32 1.72,86.02zm-87.25 -102.88c0.8,2.95 -1.24,3.59 1.36,2.78 17.61,-4.95 29.68,-17.2 41.01,-8.02 10.57,8.57 20.71,17.49 29.21,26.7 5.47,5.91 3.52,43.12 -0.69,48.38 -2.45,3.05 -31.97,15.47 -38.18,16.81 -8.2,-5.77 -17.14,-18.91 -26.6,-22.33l-0.89 0.93c3.99,6.29 16.9,13.77 25.23,25.06 -1.8,11.86 -6.13,31.95 -9.93,42.3 -2.89,7.87 -27.75,13.72 -36.09,15.59 -11.74,2.63 -10.88,3.17 -19.2,-2.69 -8.67,-6.12 -22.01,-15.95 -28.67,-23.2 -5.01,-5.45 -1.62,-11.49 -0.33,-19.72l-1.42 -1.93 -5.24 16.17c-0.07,-0.19 -0.32,0.62 -0.51,0.91 -9.11,4.39 -22.74,5 -34.05,5.23 -6,-5.82 -24.33,-28.87 -24.58,-40.83 -0.18,-8.55 5.06,-34.13 8.27,-40.71 3.3,-6.76 4.03,-2.05 9.16,-6.17l-3.77 -1.06 -4.7 -0.51c-1.23,-8.62 -5.14,-23.13 -1.74,-30.25 2.36,-4.95 11.73,-16.73 15.3,-20.13 5.2,-4.94 11.79,-12.86 19.53,-15.86 7.08,-2.75 20.91,-4.83 28.8,-5.13 1.27,5.59 1.78,15.89 4.79,19.72l1.02 -6.25 -1.84 -14.99c16.49,-11.08 33.37,-17.08 56.85,-11.75 8.33,1.89 21.47,4.24 24.94,10.63 2.08,3.84 7.04,23.06 6.93,28.1 -13.52,2.88 -22.63,8.54 -33.97,12.24zm-30.53 -56.5c-64.36,5.76 -116.13,59 -110.91,128.99 4.7,62.97 59.98,115.29 129.19,110.14 62.5,-4.65 115.27,-59.48 110.05,-128.97 -4.64,-61.86 -59.82,-116.29 -128.34,-110.16z"/>
     <path class="fil4" d="M267.34 161.05c-1.29,8.22 -4.68,14.27 0.33,19.72 6.66,7.25 20,17.08 28.67,23.2 8.31,5.86 7.45,5.32 19.2,2.69 8.35,-1.87 33.21,-7.72 36.09,-15.59 3.8,-10.35 8.14,-30.44 9.93,-42.3 -8.34,-11.29 -21.24,-18.77 -25.23,-25.06 -11.35,-2.89 -3.03,-9.6 -21.36,-3.44 -59.06,19.86 -33.78,4.97 -47.63,40.78z"/>
     <path class="fil4" d="M332.46 61.25c-5.5,6.74 -5.15,51.79 -4.19,53.44 2.42,2.02 3.68,2.71 5.48,4.19l3.47 3.91c9.45,3.42 18.4,16.56 26.6,22.33 6.21,-1.33 35.73,-13.76 38.18,-16.81 4.21,-5.26 6.16,-42.47 0.69,-48.38 -8.51,-9.21 -18.64,-18.13 -29.21,-26.7 -11.33,-9.18 -23.4,3.07 -41.01,8.02z"/>
     <path class="fil5" d="M277.18 40.49c-1.54,11.14 -12.4,18.62 -24.42,34.05 -4.97,6.37 -6.24,11.9 -15.36,13.53 -5.55,1 -18.14,2.58 -22.21,4.59l3.77 1.06 24.57 -3.43c11.31,20.17 29.19,37.27 26.61,47.73 -1.62,6.57 -5.49,14.57 -4.24,21.09l1.42 1.93c13.85,-35.81 -11.43,-20.91 47.63,-40.78 18.33,-6.16 10.01,0.55 21.36,3.44l0.89 -0.93 -3.47 -3.91c-1.8,-1.48 -3.05,-2.17 -5.48,-4.19 -0.96,-1.65 -1.31,-46.7 4.19,-53.44 -2.61,0.81 -0.56,0.17 -1.36,-2.78 -3.77,3.49 -24.02,-5.77 -30.4,-7.56 -5.1,-1.43 -11.76,-2.42 -16.39,-3.95 -7.53,-2.5 -3.48,-5.19 -6.11,-12.72l-1.02 6.25z"/>
     <path class="fil4" d="M218.97 93.72c-5.13,4.12 -5.86,-0.59 -9.16,6.17 -3.21,6.58 -8.45,32.16 -8.27,40.71 0.25,11.96 18.58,35.01 24.58,40.83 11.32,-0.24 24.95,-0.85 34.05,-5.23 0.2,-0.29 0.45,-1.1 0.51,-0.91l5.24 -16.17c-1.25,-6.52 2.62,-14.52 4.24,-21.09 2.58,-10.46 -15.3,-27.56 -26.61,-47.73l-24.57 3.43z"/>
     <path class="fil4" d="M278.21 34.24c2.63,7.53 -1.42,10.22 6.11,12.72 4.63,1.54 11.29,2.52 16.39,3.95 6.38,1.79 26.63,11.05 30.4,7.56 11.34,-3.71 20.45,-9.36 33.97,-12.24 0.11,-5.05 -4.85,-24.26 -6.93,-28.1 -3.46,-6.39 -16.6,-8.74 -24.94,-10.63 -23.48,-5.32 -40.36,0.68 -56.85,11.75l1.84 14.99z"/>
     <path class="fil6" d="M215.2 92.66c4.06,-2.01 16.66,-3.59 22.21,-4.59 9.11,-1.63 10.39,-7.16 15.36,-13.53 12.02,-15.43 22.88,-22.91 24.42,-34.05 -3.01,-3.82 -3.53,-14.13 -4.79,-19.72 -7.88,0.3 -21.71,2.39 -28.8,5.13 -7.74,3 -14.33,10.92 -19.53,15.86 -3.58,3.4 -12.94,15.18 -15.3,20.13 -3.4,7.12 0.51,21.63 1.74,30.25l4.7 0.51z"/>
     <path class="fil6" d="M291.06 236.65c17.26,4.28 39.43,0.92 55.35,-4.42 7.43,-2.49 14.35,-5.56 20.71,-9.25 8.37,-4.85 10.8,-6.39 14.13,-15.59 -5.12,-2.69 -14.27,-3.1 -20.13,-5.5 -9.7,-3.97 -7.38,-5.42 -17.33,-0.87 -12.81,5.87 -24.4,7.52 -39.27,11.2 -3.18,8.56 -6.16,12.94 -11.16,18.96l-2.32 5.46z"/>
     <path class="fil7" d="M418.35 161.36c13.69,-20.7 7.15,-62.1 -1.72,-86.02 -13.07,7.08 -4.92,15.9 -9.24,44.76 -2.72,18.21 2.45,10.7 7.1,31.04 0.94,4.14 1.14,7.15 3.86,10.22z"/>
     <path class="fil8" d="M233.04 209.14c-2.15,-6.29 -5.03,-10.89 -7.28,-17.74 -4.3,-13.15 -11.27,-16.03 -19.5,-30.96 -2.58,-4.68 -4.35,-13.2 -10.15,-15.45 -3.09,6.76 9.19,30.21 12.67,36.09 5.31,8.98 16.34,23.62 24.25,28.05z"/>
     <path class="fil9" d="M383.41 211.1c7.48,-3.43 14.67,-12.68 19.55,-19.14 5.46,-7.23 11.24,-15.58 13.4,-25.08 -5.74,11.24 -16.4,24.29 -24.9,32.75 -6.36,6.33 -4.7,1.45 -8.04,11.47z"/>
    </g>
   </g>
  </g>
 </g>
</svg>
